<svg width="24" height="24" viewBox="0 0 24 24" fill="none" xmlns="http://www.w3.org/2000/svg">
<path d="M12.0001 12L21.0001 3M18.3641 5.63604C16.7698 4.04493 14.6364 3.11014 12.386 3.01662C10.1355 2.9231 7.93192 3.67766 6.21115 5.13101C4.49037 6.58436 3.37776 8.63063 3.09343 10.865C2.80911 13.0994 3.37377 15.3591 4.67571 17.1971C5.97765 19.0351 7.92203 20.3175 10.1242 20.7906C12.3263 21.2637 14.6258 20.893 16.5678 19.7518C18.5097 18.6107 19.9526 16.7823 20.611 14.6283C21.2695 12.4743 21.0954 10.1516 20.1234 8.11973M15.1821 8.81802C14.4381 8.07409 13.457 7.61436 12.4092 7.51873C11.3615 7.42311 10.3133 7.69764 9.447 8.2946C8.58065 8.89157 7.95087 9.77323 7.66711 10.7863C7.38334 11.7995 7.46355 12.88 7.89378 13.8401C8.324 14.8002 9.07705 15.5792 10.022 16.0418C10.967 16.5043 12.0442 16.621 13.0664 16.3718C14.0885 16.1225 14.991 15.523 15.617 14.6773C16.243 13.8317 16.5529 12.7935 16.4928 11.7431" stroke="#5E718D" stroke-width="1.5" stroke-linecap="round" stroke-linejoin="round"/>
</svg>
